<mxfile host="app.diagrams.net" modified="2024-04-17T06:30:04.117Z" agent="Mozilla/5.0 (Windows NT 10.0; Win64; x64) AppleWebKit/537.36 (KHTML, like Gecko) Chrome/123.0.0.0 Safari/537.36" version="24.2.5" etag="M9yQIsbchXBdBbdC5s7i" type="github">
  <diagram name="Page-1" id="vsKoGCdycT4E7C_BkJCi">
    <mxGraphModel>
      <root>
        <mxCell id="0" />
        <mxCell id="1" parent="0" />
      </root>
    </mxGraphModel>
  </diagram>
</mxfile>
